<?xml version="1.0" encoding="UTF-8" standalone="no"?>
<svg
   version="1.0"
   width="1024.000000pt"
   height="1024.000000pt"
   viewBox="0 0 1024.000000 1024.000000"
   preserveAspectRatio="xMidYMid meet"
   id="svg3"
   sodipodi:docname="logo.svg"
   inkscape:version="1.3.2 (091e20e, 2023-11-25, custom)"
   xmlns:inkscape="http://www.inkscape.org/namespaces/inkscape"
   xmlns:sodipodi="http://sodipodi.sourceforge.net/DTD/sodipodi-0.dtd"
   xmlns:xlink="http://www.w3.org/1999/xlink"
   xmlns="http://www.w3.org/2000/svg"
   xmlns:svg="http://www.w3.org/2000/svg">
  <defs
     id="defs3">
    <linearGradient
       id="linearGradient55"
       inkscape:collect="always">
      <stop
         style="stop-color:#92a9c4;stop-opacity:1;"
         offset="0"
         id="stop55" />
      <stop
         style="stop-color:#92a9c4;stop-opacity:0;"
         offset="1"
         id="stop56" />
    </linearGradient>
    <linearGradient
       id="linearGradient48"
       inkscape:collect="always">
      <stop
         style="stop-color:#b4d1ff;stop-opacity:1;"
         offset="0"
         id="stop48" />
      <stop
         style="stop-color:#d8e7fd;stop-opacity:0;"
         offset="1"
         id="stop49" />
    </linearGradient>
    <linearGradient
       id="linearGradient46"
       inkscape:collect="always">
      <stop
         style="stop-color:#07439d;stop-opacity:1;"
         offset="0"
         id="stop46" />
      <stop
         style="stop-color:#002780;stop-opacity:0;"
         offset="1"
         id="stop47" />
    </linearGradient>
    <linearGradient
       id="linearGradient4"
       inkscape:collect="always">
      <stop
         style="stop-color:#2a98f4;stop-opacity:1;"
         offset="0"
         id="stop4" />
      <stop
         style="stop-color:#26ace8;stop-opacity:0;"
         offset="1"
         id="stop5" />
    </linearGradient>
    <radialGradient
       inkscape:collect="always"
       xlink:href="#linearGradient4"
       id="radialGradient5"
       cx="5088.96"
       cy="3621.8271"
       fx="5088.96"
       fy="3621.8271"
       r="1142.1436"
       gradientTransform="matrix(0.87264702,0.26524169,-0.17988918,0.59182746,1297.7015,165.0263)"
       gradientUnits="userSpaceOnUse" />
    <linearGradient
       inkscape:collect="always"
       xlink:href="#linearGradient46"
       id="linearGradient47"
       x1="4226.4785"
       y1="5702.0956"
       x2="5932.8141"
       y2="5702.0956"
       gradientUnits="userSpaceOnUse" />
    <linearGradient
       inkscape:collect="always"
       xlink:href="#linearGradient48"
       id="linearGradient49"
       x1="3389.0049"
       y1="5871.3042"
       x2="6758.7261"
       y2="5871.3042"
       gradientUnits="userSpaceOnUse" />
    <radialGradient
       inkscape:collect="always"
       xlink:href="#linearGradient55"
       id="radialGradient56"
       cx="5073.8594"
       cy="5219.3454"
       fx="5073.8594"
       fy="5219.3454"
       r="1915.0037"
       gradientTransform="matrix(1,0,0,1.3167594,0,-1653.2768)"
       gradientUnits="userSpaceOnUse" />
  </defs>
  <sodipodi:namedview
     id="namedview3"
     pagecolor="#ffffff"
     bordercolor="#000000"
     borderopacity="0.25"
     inkscape:showpageshadow="2"
     inkscape:pageopacity="0.0"
     inkscape:pagecheckerboard="0"
     inkscape:deskcolor="#d1d1d1"
     inkscape:document-units="pt"
     showguides="false"
     inkscape:zoom="0.80481734"
     inkscape:cx="576.52834"
     inkscape:cy="572.17952"
     inkscape:window-width="1920"
     inkscape:window-height="991"
     inkscape:window-x="-9"
     inkscape:window-y="-9"
     inkscape:window-maximized="1"
     inkscape:current-layer="g3" />
  <g
     transform="translate(0.000000,1024.000000) scale(0.100000,-0.100000)"
     fill="#000000"
     stroke="none"
     id="g3">
    <path
       id="rect4"
       style="display:inline;fill:#07439d;fill-opacity:1;stroke:#000000;stroke-width:29.9999;stroke-opacity:0;-inkscape-stroke:none"
       d="m 5087.2937,7725.9302 c -208.875,-0.9375 -417.188,-48.5657 -638.438,-144.5654 -381.999,-165.9998 -623,-218.9951 -1050,-229.9951 l -225,-43.2862 V 6108.3618 4871.36 l 23.013,-113.9942 c 33,-160.9998 81.992,-303.0011 166.992,-476.001 136,-278.9997 299.009,-499.9963 564.009,-765.9961 296,-294.9997 654.001,-550.0041 1050,-749.0039 l 103.989,-52.0019 88.008,40.0048 c 170,78 485.995,268.9914 653.994,395.9913 226,169.9998 492.001,424.0109 645,616.0107 254,318.9997 430.006,671.0003 486.006,975 17.5122,91.4523 18.9324,168.7006 18.9965,1258.5329 0,30.3599 0,61.5055 0,93.4592 v 1252.002 l -205.005,6.0059 c -222.999,6 -377,23 -540,60 -127.999,29 -310.998,89.9942 -427.998,143.9941 -205.999,93.9999 -321.994,130.0059 -503.994,156.0059 -70.25,10 -139.95,14.873 -209.575,14.5605 z"
       sodipodi:nodetypes="sccccccccccccccsscccccs"
       transform="translate(0,2.5e-4)"
       inkscape:label="rect4" />
    <path
       id="rect4-09"
       style="display:inline;fill:url(#radialGradient56);fill-opacity:1;stroke:#000000;stroke-width:29.9999;stroke-opacity:0;-inkscape-stroke:none"
       d="m 5087.2937,7725.9305 c -208.875,-0.9375 -417.188,-48.5657 -638.438,-144.5654 -381.999,-165.9998 -623,-218.9951 -1050,-229.9951 l -225,-43.2862 V 6108.3621 4871.3603 l 23.013,-113.9942 c 33,-160.9998 81.992,-303.0011 166.992,-476.001 136,-278.9997 299.009,-499.9963 564.009,-765.9961 296,-294.9997 654.001,-550.0041 1050,-749.0039 l 103.989,-52.0019 88.008,40.0048 c 170,78 485.995,268.9914 653.994,395.9913 226,169.9998 492.001,424.0109 645,616.0107 254,318.9997 430.006,671.0003 486.006,975 17.5122,91.4523 18.9324,168.7006 18.9965,1258.5329 0,30.3599 0,61.5055 0,93.4592 v 1252.002 l -205.005,6.0059 c -222.999,6 -377,23 -540,60 -127.999,29 -310.998,89.9942 -427.998,143.9941 -205.999,93.9999 -321.994,130.0059 -503.994,156.0059 -70.25,10 -139.95,14.873 -209.575,14.5605 z"
       sodipodi:nodetypes="sccccccccccccccsscccccs" />
    <path
       d="m 5010.0049,7504.0048 c -192,-18 -267,-38 -500,-134 -332,-137 -595,-199 -943,-222 l -178,-12 4,-1106 c 4,-1205 0,-1114 63,-1349 l 27,-100 136,6 c 226,9 369,-30 705,-192 360,-174 523,-198 764,-113 108,37 120,44 262,133 261,165 431,221 695,232 114,4 162,2 261,-15 98,-17 249,-59 321,-88 30,-13 104,240 123,421 8,78 10,414 8,1140 l -3,1030 -165,12 c -343,24 -605,89 -940,233 -236,101 -444,142 -640,124 z m 197,-629 c 103,-172 113,-194 113,-258 0,-86.0258 -41.3306,-153.2176 -99.6681,-191.5249 -81.359,-53.4247 -195.7961,-50.67 -277.3319,35.5249 -57,61 -75,131 -53,209 5,19 32,73 60,120 27,47 73,131 102,187 l 52,102 21,-52 c 12,-29 49,-97 82,-152 z m -59,-755 c 85,-168 207,-342 372,-530 227,-260 324,-415 371,-597 22,-86 35,-261 21,-281 -5,-7 -41,-14 -88,-18 -186,-12 -336,-53 -464,-128 -41,-23 -120,-69 -175,-101 -198,-115 -294,-146 -455,-146 -82,0 -108,4 -179,30 -141,51 -251,125 -275,183 -40,98 -46,297 -11,423 28,103 80,220 137,306 56,86 95,133 320,393 143,166 270,349 332,478 22,48 42,88 43,88 0,0 24,-45 51,-100 z"
       id="path2-8"
       style="display:inline;fill:#d8e7fd;fill-opacity:1"
       sodipodi:nodetypes="cccccccccccccccccccccssccccccccccccccscccccccc" />
    <path
       d="m 5950,4473 c -242,-23 -339,-59 -690,-253 -108,-59 -204,-99 -305,-126 -107,-29 -389,-27 -502,4 -119,32 -239,80 -445,177 -163,77 -382,170 -446,190 -22,6 -21,2 19,-77 187,-374 516,-740 920,-1025 160,-112 310,-204 460,-280 l 127,-64 110,55 c 487,244 912,603 1206,1018 26,38 79,123 117,190 81,143 90,127 -92,157 -194,32 -372,45 -479,34 z"
       id="path3"
       style="display:inline;fill:#07439d;fill-opacity:1;stroke:#000000;stroke-opacity:0"
       sodipodi:nodetypes="ccccccccccccccc" />
    <path
       id="rect4-0-4"
       style="display:inline;fill:#26ace8;fill-opacity:1;stroke:#000000;stroke-width:29.9999;stroke-opacity:0;-inkscape-stroke:none"
       d="m 5103.999,7078.999 -52.0019,-101.997 C 5022.9971,6921.0059 4977,6837 4950,6790 c -28,-46.9962 -55,-101 -60,-120 -22,-77.9962 -3.9982,-148.0039 52.998,-209.0039 81.5358,-86.1912 195.9837,-88.9472 277.3389,-35.5223 58.3375,38.3036 99.668,105.5061 99.668,191.5283 0,63.9961 -10.0019,86.0105 -112.9981,258.0029 -32.9962,55 -70.0019,122.9922 -82.0019,151.9922 z M 5096.9971,6220 c -1,0 -20.9932,-39.997 -42.9932,-87.9931 -61.9962,-128.9961 -189.0144,-312.0154 -332.0068,-478.0079 -224.9924,-259.9924 -263.9989,-307.0029 -319.9951,-393.0029 -57,-85.9961 -109.0069,-202.9949 -137.0069,-305.9913 -34.9962,-125.9924 -28.999,-325.0067 11.001,-423.0029 24,-57.996 134.0136,-132.0066 275.0098,-183.0029 70.9962,-26 96.993,-30 178.9892,-30 160.9962,0 257.0174,31.0085 455.0098,146.001 54.9962,32 133.994,78.0009 174.9902,101.0009 127.9962,75 278.0115,115.9981 464.0039,127.9981 47,4 83.0078,11.0029 88.0078,18.0029 14,20 0.9942,195.0048 -21.0058,281.001 -47,181.9924 -144.0086,337.0084 -371.001,596.9971 -164.9924,187.9961 -287.0009,361.9989 -371.9971,529.9952 C 5121.0067,6174.9913 5096.9971,6220 5096.9971,6220 Z m -567.334,-1914.3163 c -0.035,-0.4008 -0.078,-0.7988 -0.1026,-1.2158 1.4604,-0.1636 2.9197,-0.3344 4.3799,-0.498 -1.3842,0.5308 -2.889,1.1788 -4.2773,1.7138 z"
       transform="translate(0,2.5e-4)" />
    <path
       id="rect4-0"
       style="display:inline;fill:url(#linearGradient47);fill-opacity:1;stroke:#000000;stroke-width:29.9999;stroke-opacity:0;-inkscape-stroke:none"
       transform="translate(0,2.5e-4)"
       d="m 5103.999,7078.9988 -52.0019,-101.9971 c -29,-55.9962 -74.9971,-140.002 -101.9971,-187.002 -28,-46.9962 -55,-101 -60,-120 -22,-77.9962 -3.9982,-148.0039 52.998,-209.0039 81.5358,-86.1912 195.9837,-88.9471 277.3389,-35.5224 58.3375,38.3036 99.668,105.5062 99.668,191.5283 0,63.9962 -10.0019,86.0105 -112.9981,258.0029 -32.9962,55 -70.0019,122.9922 -82.0019,151.9922 z m -7.0019,-858.9991 c -1,0 -20.9932,-39.9969 -42.9932,-87.9931 -61.9962,-128.9962 -189.0144,-312.0154 -332.0068,-478.0078 -224.9924,-259.9924 -263.9989,-307.003 -319.9951,-393.003 -57,-85.9962 -109.0069,-202.995 -137.0069,-305.9912 -34.9962,-125.9924 -28.999,-325.0067 11.001,-423.0029 24,-57.9962 134.0136,-132.0067 275.0098,-183.0029 70.9962,-26 96.993,-30 178.9892,-30 160.9962,0 257.0174,31.0085 455.0098,146.0009 54.9962,32 133.994,78.001 174.9902,101.001 127.9962,75 278.0115,115.9981 464.0039,127.9981 47,4 83.0078,11.0029 88.0078,18.0029 14,20 0.9942,195.0048 -21.0058,281.001 -47,181.9924 -144.0086,337.0084 -371.001,596.997 -164.9924,187.9962 -287.0009,361.999 -371.9971,529.9952 -26.9962,54.9962 -51.0058,100.0048 -51.0058,100.0048 z m -567.334,-1914.3164 c -0.035,-0.4008 -0.078,-0.7988 -0.1026,-1.2158 1.4604,-0.1635 2.9197,-0.3344 4.3799,-0.498 -1.3842,0.5308 -2.889,1.1788 -4.2773,1.7138 z"
       inkscape:label="rect4-0" />
    <path
       d="m 5010.0049,7504.0048 c -192,-18 -267,-38 -500,-134 -332,-137 -595,-199 -943,-222 l -178,-12 4,-1106 c 4,-1205 0,-1114 63,-1349 l 27,-100 136,6 c 226,9 369,-30 705,-192 360,-174 523,-198 764,-113 108,37 120,44 262,133 261,165 431,221 695,232 57.998,2.035 98.9132,2.517 138.1522,0.261 37.8886,-2.1785 74.2145,-6.9098 122.8478,-15.261 98,-17 249,-59 321,-88 30,-13 104,240 123,421 8,78 10,414 8,1140 l -3,1030 -165,12 c -343,24 -605,89 -940,233 -236,101 -444,142 -640,124 z m 197,-629 c 103,-172 113,-194 113,-258 0,-86.0258 -41.3306,-153.2176 -99.6681,-191.5249 -81.359,-53.4247 -195.7961,-50.67 -277.3319,35.5249 -57,61 -75,131 -53,209 5,19 32,73 60,120 27,47 73,131 102,187 l 52,102 21,-52 c 12,-29 49,-97 82,-152 z m -59,-755 c 85,-168 207,-342 372,-530 227,-260 324,-415 371,-597 22,-86 35,-261 21,-281 -5,-7 -41,-14 -88,-18 -186,-12 -336,-53 -464,-128 -41,-23 -120,-69 -175,-101 -198,-115 -294,-146 -455,-146 -82,0 -108,4 -179,30 -141,51 -251,125 -275,183 -40,98 -46,297 -11,423 28,103 80,220 137,306 56,86 95,133 320,393 143,166 270,349 332,478 22,48 42,88 43,88 0,0 24,-45 51,-100 z"
       id="path2-8-0"
       style="display:inline;fill:url(#linearGradient49);fill-opacity:1"
       sodipodi:nodetypes="ccccccccccccscccccccccssccccccccccccccscccccccc"
       transform="translate(0,2.5e-4)" />
    <path
       d="m 5743.8685,4197.2767 c -182.6384,-20.8766 -256.0203,-46.6192 -521.9729,-181.1163 -81.8272,-40.9345 -154.4807,-69.2471 -230.8196,-89.249 -80.877,-21.4472 -293.5152,-27.0892 -378.5233,-9.7586 -89.5264,17.8321 -179.7021,46.0195 -334.4081,103.8799 -122.4114,45.9431 -286.9466,100.8886 -335.077,112.2889 -16.5507,3.3514 -15.8227,0.7827 13.8234,-49.4868 138.5653,-238.0345 384.2629,-467.3842 687.0467,-642.3389 119.92,-68.7237 232.4301,-124.7182 345.0449,-170.3328 l 95.3499,-38.3953 83.3088,38.3885 c 208.4167,96.2207 402.1454,215.7763 571.7285,351.4544 130.5284,104.4316 246.752,218.4148 344.3581,338.6608 19.8551,25.2927 60.3779,81.7416 89.4712,126.1436 62.0169,94.7659 68.6989,84.6069 -68.3479,99.5912 -88.0654,9.6374 -171.7911,14.938 -242.0978,15.4879 -46.3176,0.3622 -86.8113,-1.3375 -118.8849,-5.2175 z"
       id="path3-2"
       style="display:inline;fill:url(#radialGradient5);stroke:#000000;stroke-width:0.999989;stroke-opacity:0"
       inkscape:transform-center-x="-76.576568"
       inkscape:transform-center-y="30.89275"
       sodipodi:nodetypes="cccccccccccscccsc" />
  </g>
</svg>
